<svg width="25" height="30" viewBox="0 0 25 30" fill="none" xmlns="http://www.w3.org/2000/svg">
<circle cx="13" cy="8" r="8" fill="#F23D04"/>
<path d="M5.61364 25.0909C5.61364 25.7045 5.50284 26.2348 5.28125 26.6818C5.05966 27.1288 4.75568 27.4735 4.36932 27.7159C3.98295 27.9583 3.54167 28.0795 3.04545 28.0795C2.54924 28.0795 2.10795 27.9583 1.72159 27.7159C1.33523 27.4735 1.03125 27.1288 0.809659 26.6818C0.588068 26.2348 0.477273 25.7045 0.477273 25.0909C0.477273 24.4773 0.588068 23.947 0.809659 23.5C1.03125 23.053 1.33523 22.7083 1.72159 22.4659C2.10795 22.2235 2.54924 22.1023 3.04545 22.1023C3.54167 22.1023 3.98295 22.2235 4.36932 22.4659C4.75568 22.7083 5.05966 23.053 5.28125 23.5C5.50284 23.947 5.61364 24.4773 5.61364 25.0909ZM4.93182 25.0909C4.93182 24.5871 4.84754 24.1619 4.67898 23.8153C4.51231 23.4688 4.28598 23.2064 4 23.0284C3.71591 22.8504 3.39773 22.7614 3.04545 22.7614C2.69318 22.7614 2.37405 22.8504 2.08807 23.0284C1.80398 23.2064 1.57765 23.4688 1.40909 23.8153C1.24242 24.1619 1.15909 24.5871 1.15909 25.0909C1.15909 25.5947 1.24242 26.0199 1.40909 26.3665C1.57765 26.7131 1.80398 26.9754 2.08807 27.1534C2.37405 27.3314 2.69318 27.4205 3.04545 27.4205C3.39773 27.4205 3.71591 27.3314 4 27.1534C4.28598 26.9754 4.51231 26.7131 4.67898 26.3665C4.84754 26.0199 4.93182 25.5947 4.93182 25.0909ZM8.65057 23.6364V24.2045H6.2983V23.6364H8.65057ZM7.00284 28V23.0341C7.00284 22.7841 7.06155 22.5758 7.17898 22.4091C7.2964 22.2424 7.44886 22.1174 7.63636 22.0341C7.82386 21.9508 8.02178 21.9091 8.23011 21.9091C8.39489 21.9091 8.52936 21.9223 8.63352 21.9489C8.73769 21.9754 8.81534 22 8.86648 22.0227L8.6733 22.6023C8.6392 22.5909 8.59186 22.5767 8.53125 22.5597C8.47254 22.5426 8.39489 22.5341 8.2983 22.5341C8.0767 22.5341 7.91667 22.59 7.81818 22.7017C7.72159 22.8134 7.6733 22.9773 7.6733 23.1932V28H7.00284ZM11.5334 23.6364V24.2045H9.18111V23.6364H11.5334ZM9.88565 28V23.0341C9.88565 22.7841 9.94437 22.5758 10.0618 22.4091C10.1792 22.2424 10.3317 22.1174 10.5192 22.0341C10.7067 21.9508 10.9046 21.9091 11.1129 21.9091C11.2777 21.9091 11.4122 21.9223 11.5163 21.9489C11.6205 21.9754 11.6982 22 11.7493 22.0227L11.5561 22.6023C11.522 22.5909 11.4747 22.5767 11.4141 22.5597C11.3554 22.5426 11.2777 22.5341 11.1811 22.5341C10.9595 22.5341 10.7995 22.59 10.701 22.7017C10.6044 22.8134 10.5561 22.9773 10.5561 23.1932V28H9.88565ZM13.1435 22.1818V28H12.473V22.1818H13.1435ZM14.3714 28V23.6364H15.0419V28H14.3714ZM14.7124 22.9091C14.5817 22.9091 14.469 22.8646 14.3743 22.7756C14.2815 22.6866 14.2351 22.5795 14.2351 22.4545C14.2351 22.3295 14.2815 22.2225 14.3743 22.1335C14.469 22.0445 14.5817 22 14.7124 22C14.843 22 14.9548 22.0445 15.0476 22.1335C15.1423 22.2225 15.1896 22.3295 15.1896 22.4545C15.1896 22.5795 15.1423 22.6866 15.0476 22.7756C14.9548 22.8646 14.843 22.9091 14.7124 22.9091ZM16.9403 25.375V28H16.2699V23.6364H16.9176V24.3182H16.9744C17.0767 24.0966 17.232 23.9186 17.4403 23.7841C17.6487 23.6477 17.9176 23.5795 18.2472 23.5795C18.5426 23.5795 18.8011 23.6402 19.0227 23.7614C19.2443 23.8807 19.4167 24.0625 19.5398 24.3068C19.6629 24.5492 19.7244 24.8561 19.7244 25.2273V28H19.054V25.2727C19.054 24.9299 18.965 24.6629 18.7869 24.4716C18.6089 24.2784 18.3646 24.1818 18.054 24.1818C17.84 24.1818 17.6487 24.2282 17.4801 24.321C17.3134 24.4138 17.1818 24.5492 17.0852 24.7273C16.9886 24.9053 16.9403 25.1212 16.9403 25.375ZM22.7791 28.0909C22.3587 28.0909 21.996 27.9981 21.6911 27.8125C21.388 27.625 21.1541 27.3636 20.9893 27.0284C20.8265 26.6913 20.745 26.2992 20.745 25.8523C20.745 25.4053 20.8265 25.0114 20.9893 24.6705C21.1541 24.3277 21.3833 24.0606 21.6768 23.8693C21.9723 23.6761 22.317 23.5795 22.7109 23.5795C22.9382 23.5795 23.1626 23.6174 23.3842 23.6932C23.6058 23.7689 23.8075 23.892 23.9893 24.0625C24.1712 24.2311 24.3161 24.4545 24.424 24.733C24.532 25.0114 24.5859 25.3542 24.5859 25.7614V26.0455H21.2223V25.4659H23.9041C23.9041 25.2197 23.8549 25 23.7564 24.8068C23.6598 24.6136 23.5215 24.4612 23.3416 24.3494C23.1636 24.2377 22.9534 24.1818 22.7109 24.1818C22.4439 24.1818 22.2128 24.2481 22.0178 24.3807C21.8246 24.5114 21.6759 24.6818 21.5717 24.892C21.4676 25.1023 21.4155 25.3277 21.4155 25.5682V25.9545C21.4155 26.2841 21.4723 26.5634 21.5859 26.7926C21.7015 27.0199 21.8615 27.1932 22.0661 27.3125C22.2706 27.4299 22.5083 27.4886 22.7791 27.4886C22.9553 27.4886 23.1143 27.464 23.2564 27.4148C23.4003 27.3636 23.5244 27.2879 23.6286 27.1875C23.7327 27.0852 23.8132 26.9583 23.87 26.8068L24.5178 26.9886C24.4496 27.2083 24.335 27.4015 24.174 27.5682C24.013 27.733 23.8142 27.8617 23.5774 27.9545C23.3407 28.0455 23.0746 28.0909 22.7791 28.0909Z" fill="black"/>
</svg>
