<svg width="24" height="30" viewBox="0 0 24 30" fill="none" xmlns="http://www.w3.org/2000/svg">
<circle cx="12" cy="8" r="8" fill="#74BC50"/>
<path d="M5.61364 25.0909C5.61364 25.7045 5.50284 26.2348 5.28125 26.6818C5.05966 27.1288 4.75568 27.4735 4.36932 27.7159C3.98295 27.9583 3.54167 28.0795 3.04545 28.0795C2.54924 28.0795 2.10795 27.9583 1.72159 27.7159C1.33523 27.4735 1.03125 27.1288 0.809659 26.6818C0.588068 26.2348 0.477273 25.7045 0.477273 25.0909C0.477273 24.4773 0.588068 23.947 0.809659 23.5C1.03125 23.053 1.33523 22.7083 1.72159 22.4659C2.10795 22.2235 2.54924 22.1023 3.04545 22.1023C3.54167 22.1023 3.98295 22.2235 4.36932 22.4659C4.75568 22.7083 5.05966 23.053 5.28125 23.5C5.50284 23.947 5.61364 24.4773 5.61364 25.0909ZM4.93182 25.0909C4.93182 24.5871 4.84754 24.1619 4.67898 23.8153C4.51231 23.4688 4.28598 23.2064 4 23.0284C3.71591 22.8504 3.39773 22.7614 3.04545 22.7614C2.69318 22.7614 2.37405 22.8504 2.08807 23.0284C1.80398 23.2064 1.57765 23.4688 1.40909 23.8153C1.24242 24.1619 1.15909 24.5871 1.15909 25.0909C1.15909 25.5947 1.24242 26.0199 1.40909 26.3665C1.57765 26.7131 1.80398 26.9754 2.08807 27.1534C2.37405 27.3314 2.69318 27.4205 3.04545 27.4205C3.39773 27.4205 3.71591 27.3314 4 27.1534C4.28598 26.9754 4.51231 26.7131 4.67898 26.3665C4.84754 26.0199 4.93182 25.5947 4.93182 25.0909ZM7.37784 25.375V28H6.70739V23.6364H7.35511V24.3182H7.41193C7.5142 24.0966 7.66951 23.9186 7.87784 23.7841C8.08617 23.6477 8.35511 23.5795 8.68466 23.5795C8.98011 23.5795 9.23864 23.6402 9.46023 23.7614C9.68182 23.8807 9.85417 24.0625 9.97727 24.3068C10.1004 24.5492 10.1619 24.8561 10.1619 25.2273V28H9.49148V25.2727C9.49148 24.9299 9.40246 24.6629 9.22443 24.4716C9.0464 24.2784 8.80208 24.1818 8.49148 24.1818C8.27746 24.1818 8.08617 24.2282 7.91761 24.321C7.75095 24.4138 7.61932 24.5492 7.52273 24.7273C7.42614 24.9053 7.37784 25.1212 7.37784 25.375ZM12.0575 22.1818V28H11.3871V22.1818H12.0575ZM13.2855 28V23.6364H13.956V28H13.2855ZM13.6264 22.9091C13.4957 22.9091 13.383 22.8646 13.2884 22.7756C13.1955 22.6866 13.1491 22.5795 13.1491 22.4545C13.1491 22.3295 13.1955 22.2225 13.2884 22.1335C13.383 22.0445 13.4957 22 13.6264 22C13.7571 22 13.8688 22.0445 13.9616 22.1335C14.0563 22.2225 14.1037 22.3295 14.1037 22.4545C14.1037 22.5795 14.0563 22.6866 13.9616 22.7756C13.8688 22.8646 13.7571 22.9091 13.6264 22.9091ZM15.8544 25.375V28H15.1839V23.6364H15.8317V24.3182H15.8885C15.9908 24.0966 16.1461 23.9186 16.3544 23.7841C16.5627 23.6477 16.8317 23.5795 17.1612 23.5795C17.4567 23.5795 17.7152 23.6402 17.9368 23.7614C18.1584 23.8807 18.3307 24.0625 18.4538 24.3068C18.5769 24.5492 18.6385 24.8561 18.6385 25.2273V28H17.968V25.2727C17.968 24.9299 17.879 24.6629 17.701 24.4716C17.523 24.2784 17.2786 24.1818 16.968 24.1818C16.754 24.1818 16.5627 24.2282 16.3942 24.321C16.2275 24.4138 16.0959 24.5492 15.9993 24.7273C15.9027 24.9053 15.8544 25.1212 15.8544 25.375ZM21.6932 28.0909C21.2727 28.0909 20.91 27.9981 20.6051 27.8125C20.3021 27.625 20.0682 27.3636 19.9034 27.0284C19.7405 26.6913 19.6591 26.2992 19.6591 25.8523C19.6591 25.4053 19.7405 25.0114 19.9034 24.6705C20.0682 24.3277 20.2973 24.0606 20.5909 23.8693C20.8864 23.6761 21.2311 23.5795 21.625 23.5795C21.8523 23.5795 22.0767 23.6174 22.2983 23.6932C22.5199 23.7689 22.7216 23.892 22.9034 24.0625C23.0852 24.2311 23.2301 24.4545 23.3381 24.733C23.446 25.0114 23.5 25.3542 23.5 25.7614V26.0455H20.1364V25.4659H22.8182C22.8182 25.2197 22.7689 25 22.6705 24.8068C22.5739 24.6136 22.4356 24.4612 22.2557 24.3494C22.0777 24.2377 21.8674 24.1818 21.625 24.1818C21.358 24.1818 21.1269 24.2481 20.9318 24.3807C20.7386 24.5114 20.59 24.6818 20.4858 24.892C20.3816 25.1023 20.3295 25.3277 20.3295 25.5682V25.9545C20.3295 26.2841 20.3864 26.5634 20.5 26.7926C20.6155 27.0199 20.7756 27.1932 20.9801 27.3125C21.1847 27.4299 21.4223 27.4886 21.6932 27.4886C21.8693 27.4886 22.0284 27.464 22.1705 27.4148C22.3144 27.3636 22.4384 27.2879 22.5426 27.1875C22.6468 27.0852 22.7273 26.9583 22.7841 26.8068L23.4318 26.9886C23.3636 27.2083 23.2491 27.4015 23.0881 27.5682C22.9271 27.733 22.7282 27.8617 22.4915 27.9545C22.2547 28.0455 21.9886 28.0909 21.6932 28.0909Z" fill="black"/>
</svg>
