<svg width="12" height="12" viewBox="0 0 12 12" fill="none" xmlns="http://www.w3.org/2000/svg">
<path d="M8.45324 8.98349L11.3571 11.8881C11.4306 11.9608 11.5266 11.9976 11.6226 11.9976C11.7186 11.9976 11.8146 11.9608 11.8881 11.8881C12.0343 11.7411 12.0343 11.5041 11.8881 11.3571L9.21461 8.6843C11.0001 6.6243 10.9145 3.49228 8.95782 1.53506C6.91083 -0.511688 3.58017 -0.511688 1.53468 1.53506C-0.511559 3.58181 -0.511559 6.91331 1.53468 8.96006C2.52668 9.95156 3.84485 10.4976 5.24625 10.4976C5.4532 10.4976 5.62116 10.3296 5.62116 10.1226C5.62116 9.91556 5.4532 9.74756 5.24625 9.74756C4.0443 9.74756 2.91508 9.27956 2.0648 8.42981C0.310985 6.67481 0.310985 3.82031 2.0648 2.06531C3.81786 0.310313 6.67164 0.311063 8.4277 2.06531C10.1815 3.82031 10.1815 6.67481 8.4277 8.42981C8.28149 8.57606 8.28149 8.81381 8.4277 8.96006C8.43594 8.96834 8.44446 8.97615 8.45324 8.98349Z" fill="#BDC0C6"/>
</svg>
