<svg width="5" height="5" viewBox="0 0 16 16" fill="none" xmlns="http://www.w3.org/2000/svg">
<path fill-rule="evenodd" clip-rule="evenodd" d="M8 9C9.06087 9 10.0783 8.57857 10.8284 7.82843C11.5786 7.07828 12 6.06087 12 5C12 3.93913 11.5786 2.92172 10.8284 2.17157C10.0783 1.42143 9.06087 1 8 1C6.93913 1 5.92172 1.42143 5.17157 2.17157C4.42143 2.92172 4 3.93913 4 5C4 6.06087 4.42143 7.07828 5.17157 7.82843C5.92172 8.57857 6.93913 9 8 9ZM8 8C8.79565 8 9.55871 7.68393 10.1213 7.12132C10.6839 6.55871 11 5.79565 11 5C11 4.20435 10.6839 3.44129 10.1213 2.87868C9.55871 2.31607 8.79565 2 8 2C7.20435 2 6.44129 2.31607 5.87868 2.87868C5.31607 3.44129 5 4.20435 5 5C5 5.79565 5.31607 6.55871 5.87868 7.12132C6.44129 7.68393 7.20435 8 8 8Z" fill="#343741"/>
<path d="M15 14.291C14.1488 13.2594 13.0795 12.4293 11.8692 11.8603C10.6588 11.2912 9.33744 10.9974 8 11C6.66256 10.9974 5.34117 11.2912 4.13082 11.8603C2.92047 12.4293 1.85124 13.2594 1 14.291L1.715 15.001C2.47053 14.0612 3.42759 13.3033 4.51546 12.7831C5.60333 12.263 6.79418 11.994 8 11.996C9.2059 11.9937 10.3969 12.2625 11.4849 12.7825C12.573 13.3024 13.5303 14.0603 14.286 15L15 14.29V14.291Z" fill="#343741"/>
</svg>
